[hls @ 0x5602d8fb4200] Skip ('#EXT-X-TWITCH-PREFETCH:https://7dfcb88758ec.j.cloudfront.hls.ttvnw.net/v1/segment/CtQCjnJ9k6L8itPQit4StTrx_Pn359uGwDLcuexHnDczGDRoXv5VrYH_YkF1PAB-JLvsEsgx9TZHB6Npr7clAF4mIScQbd4XUCq6ycDsDVOxG6iq13SjQIYvDT-8Dp8LiW3ajtauCOdaL4eQSpclwgZepjvittFUDiZN-I4LPBYoyibYjIxaJBEON8l2vflqz3afzfH8_42o4YXDnGGTspT_cifg1Dt570CpzTpiuqGfMnrnn6n-E71Eb1j7Vk5XMe38PUaabeCtetEyb-PgO5BUQ7rOOXDH99QtjvwdfCSvUTMJAyM4xxWas-wO70R5BguePSjOCG7r0IjAmf4B5q_geaHZOu9jp_p6bYz3R7It6QBj9Y73gg_2nQjsLRqHjEOBjf5Y7o4vTuBShot6MuLKaowADQG9FM6Lr5WeiJ8UksrCvpRLwfTsssDJix1hKiVOCYsUcBoML7310QoV4-zUHUxkIAEqCWV1LXdlc3QtMjDwDQ.ts?dna=CnjriuUNMsk25G-8zQL5-WXCVnjONGriBSAf_Gmy7hUsOq7-J7YLGvjLQalvP6GPh1SC1fkxRLyaafyqPuykkZO3jRCUXikxrkQVOhjtrcNoi-NH0h_kEEhUJ7B-qtqgClsV7TVIcuk6KFPTxo0nzSwwJZyH-3UPxC0aDBG7Re_zBQYvfCXnPiABKglldS13ZXN0LTIw8A0')
[https @ 0x5602d927f740] Opening 'https://7dfcb88758ec.j.cloudfront.hls.ttvnw.net/v1/segment/CtQCm4X6U-Pvz5CaNBAtWjICKv_bcEvskWO8JQQCZwSDZ292OtT9F0lpx4-zAHyfSc7CnXSLmRBJdKCqH4LH2t0l2JAozJ8kKpDZzTDI1QlaRPuIqn32kuJs8lvEHJu6v4Ebb9gqvfeIjsdlpMkU8Z616rRGMVFnv6MQITvc8nEmJVAKUaK7-ys9NPFM7M2Nv-8qxsq_mMXNxQUyEDIO5wRER8I6zCn1qI1I-UOVq6euZUUtoHDN8HPrl_-4X8wn3Xxb2QG0QmaOMSoBGO3Z0S_jczJZouQIPgSi1_agnEOr1FyknQsQzQDcUzuZioKDLME9GX49GshFA4z4bgDs4hmKG4ovE4OsjMXxchWLGzhx8jDH8oT18b5LYt7TFrYYURDBqV4dLKyZNWRUhf3f6dakSdY4k9ApN5jE-ATipVBhtbja_duNUucki1qFoPFWliuB-oPRzRoMs7TJptsNE1pR7zRhIAEqCWV1LXdlc3QtMjDwDQ.ts?dna=CnjriuUNMsk25G-8zQL5-WXCVnjONGriBSAf_Gmy7hUsOq7-J7YLGvjLQalvP6GPh1SC1fkxRLyaafyqPuykkZO3jRCUXikxrkQVOhjtrcNoi-NH0h_kEEhUJ7B-qtqgClsV7TVIcuk6KFPTxo0nzSwwJZyH-3UPxC0aDBG7Re_zBQYvfCXnPiABKglldS13ZXN0LTIw8A0' for reading
frame=  238 fps= 95 q=-1.0 size=     256KiB time=00:00:07.86 bitrate= 266.6kbits/s speed=3.15x    
frame=  238 fps= 79 q=-1.0 size=     256KiB time=00:00:07.86 bitrate= 266.6kbits/s speed=2.62x    
frame=  238 fps= 68 q=-1.0 size=     256KiB time=00:00:07.86 bitrate= 266.6kbits/s speed=2.24x    
frame=  238 fps= 59 q=-1.0 size=     256KiB time=00:00:07.86 bitrate= 266.6kbits/s speed=1.96x    
[https @ 0x7f0e800128c0] Opening 'https://euw13.playlist.ttvnw.net/v1/playlist/CsYGVnrZ8t7f2NOt1Qpx4D7M60QVvmXeG2t8EYtwq5-gis_6qNk11sd1QO59ZI9Q8xo3kPU6zoqAKFJPI7iBuTQCsquKqb20iK0lMLTmj4yiq8CR0kXPioA-gjz8Uq05WGlhmlK3AZp_P__5DhQn1anlwkKZ3HGgZ-5hu3polq3wC_7f6CJk9a0rlf8mFTa8vfrj_7kONdTFeajAJLARG0TMjcv9KKgJ_45gVK4Swi-M4-56j7_4PN8pmrm8lEGVikw-YOwEUvZ4rPiAeiyUpc5Okfy93Vp4SEc_b8chFlvJ1VFRDetUrRkW1K0IzNQhuPyUbhJZDZWmhSOnuXlv6IGCPYXSQ1R3yIcJbU67c8nYGQMYpIEOD2pF58poDjkxFkoipyCrZx65pUPo6RN7KMPn1scGL_u51JWaOYH4SJPFMBEanfwVuNyYC52oDxLVn1c5KdGpmpQ2lF1ii6XwY5S27j7AXf58nnhXlImGkzE15ff8I_EJKDRzZgGce6yhXSasl4eKZrW6y__YMmHZlV8in_W_lSglmRXuMUoC-XoE34nADD4ptz-T2qlmXm3gW80fDk9bcSt2KrnhrYgwDKijeg9yzteswmBtmb-XtHpCEraaTRqW6gtzGc2meyzxWtJEhuCce1R99JVsdMjrIPPSBeB43x47pd8fZ4OodcvlvdQINHD1ExV9cU-v0fOIYcNZX_ufIiS6QdV-8yoZuiGOwIzRYLgobHBzGadhKapA7j6GjbwY_5kodBmxsQqthbLTLsVWovNkXCAteAMlCumEE7UyEdWiV_FMoc12cYsY6zJS6-MFZjnrlatUYVvoMHvbV-ZFjk1YzSWKLg_9OPDKGBnLuIrwpFT3gtwT_ATIlwejgrojrNPR6MIdRK4NIegc9P9i9NdZ55U_hBch_NUxMCbSwaWBBudqVzs1JxVeon63MiSwtlx7Eh6NWieLOZ-756zWvyyGsuiT9XDO07QVNDPhc9ZwIHuCWhhm7Mqc6YzbbYhXQDDcU3s4VCqZABC_Y5-noSwCtbWMdQzeQEAvHW_7oR3fkSLEZXmxSqbsqAgun75TVTAt12Y9-A53-zB1kQ8rrNNCmuIbHNrlIcXcFCYJdJZMXBoMshUI8qy_MfY4EUmAIAEqCWV1LXdlc3QtMjDwDQ.m3u8' for reading
[hls @ 0x5602d8fb4200] Skip ('#EXT-X-VERSION:3')
[hls @ 0x5602d8fb4200] Skip ('#EXT-X-TWITCH-LIVE-SEQUENCE:12639')
[hls @ 0x5602d8fb4200] Skip ('#EXT-X-TWITCH-ELAPSED-SECS:25278.000')
[hls @ 0x5602d8fb4200] Skip ('#EXT-X-TWITCH-TOTAL-SECS:25310.000')
[hls @ 0x5602d8fb4200] Skip ('#EXT-X-DATERANGE:ID="playlist-creation-1764944945",CLASS="timestamp",START-DATE="2025-12-05T14:29:05.417Z",END-ON-NEXT=YES,X-SERVER-TIME="1764944945.42"')
[hls @ 0x5602d8fb4200] Skip ('#EXT-X-DATERANGE:ID="playlist-session-1764944945",CLASS="twitch-session",START-DATE="2025-12-05T14:29:05.417Z",END-ON-NEXT=YES,X-TV-TWITCH-SESSIONID="3923588872949232500"')
[hls @ 0x5602d8fb4200] Skip ('#EXT-X-DATERANGE:ID="source-1764944923",CLASS="twitch-stream-source",START-DATE="2025-12-05T14:28:43.649Z",END-ON-NEXT=YES,X-TV-TWITCH-STREAM-SOURCE="live"')
[hls @ 0x5602d8fb4200] Skip ('#EXT-X-DATERANGE:ID="trigger-1764944915",CLASS="twitch-trigger",START-DATE="2025-12-05T14:28:35.649Z",END-ON-NEXT=YES,X-TV-TWITCH-TRIGGER-URL="https://euw13.playlist.ttvnw.net/trigger/CswGfOTf_94NJn15MXcDO7it-8-nPqFESF57J0ogFubKkdh_Dr9mwgEhU3yfldZhUlbbaTLWGPZ9nzWBqLHyRKcgtLFfZy0UxyMycCGD2MChPgbztsbkcHmysQOyuq0AN6lGR5d0tU5cCUGtgr384DyqxlSx_LymvxeSzsuzt3P0esX6E_St-ATgcf3rkdaP3F6qYE2Pw99DKMh6hUxVsqji8g2j5puNDBHV_LSsZryNBQaN-lvyPt1ZodUwd1NwuZ_QjDWLGm0P-EolWw6AJW4fC-ighshPX4cbIK8V5epIeV_DJ_IO3rq8gWgtwghxw8kPzlogE9ye4ixfE6vC0VHpzpf-PJgrKqs4QnYAlX_7Jxq1A8cHTXuIHqew4VcxpTs97WpPS_8MH-VPxv3Ix8Ky8ue_bc4PqubHS7ghl5rcR21vyMxCV2yqRPFCLHByuZOxf9773gvSS67Wsr3Q51BQX3CwC5uSpAEtsg2htYo-msZW49ywDaX_3Vw8nSq4kRNPvvO740rCRjwS3ZyBekRRNPovzh6b_w76qd8ivYbwzIkDQb2HzYJvfuZe41oI_PpN8_SjAfiTDJhLRzpM9rZYcrJ6_xmv7sANpbWE_Ueq3zYpIeim3tneMGTXwJqZtqjvAAjOsH_qNWKvqjWjT48sfEssji2VLyg3CPWUQRo_x9pU77eWZv8v8KJfI6w0rHVtmdKGPcp7Xq_Twamx1mv7tzQsgtU1hjZk47ghISexxGoNXWJNp1YWHy4qyQCyEnqIG8LJwf5DaEI8gadMEVC2JudImQBqDIqU_n0yQdv228XkAkuhAFDsV8hq6WkR1Eiblr8IftJaxL3KJLWDLU8e16km_MCr5K3NndkKRNlyYT7-N8qljQoHOW1m3mbmKMUylmZtsaOOiAb5NXl4PiHPV-ZjU0ZzmmHBnMgwONCXuyWLJ7EliI_23nuwoat8tXCkm_Kj-PBRIYE7k59lzcl0ozaZP1ddtP6QgJ8EhR0bKU2E6aVlLyseKabU1ucxjH-Tly8OKyxe0hSimqQZHnYPMVY3w9YE-evtWh7lGkQWV_DrE4g8RbwhebRbDFFX-ap6BZbcTq9CxlkMwbt-XhGm3qWNj-_hU0Sf8-QhmxoMKilrIHTBZwGQL7YQIAEqCWV1LXdlc3QtMjDwDQ"')
[hls @ 0x5602d8fb4200] Skip ('#EXT-X-PROGRAM-DATE-TIME:2025-12-05T14:28:49.649Z')
[hls @ 0x5602d8fb4200] Skip ('#EXT-X-PROGRAM-DATE-TIME:2025-12-05T14:28:51.649Z')
[hls @ 0x5602d8fb4200] Skip ('#EXT-X-PROGRAM-DATE-TIME:2025-12-05T14:28:53.649Z')
[hls @ 0x5602d8fb4200] Skip ('#EXT-X-PROGRAM-DATE-TIME:2025-12-05T14:28:55.649Z')
[hls @ 0x5602d8fb4200] Skip ('#EXT-X-PROGRAM-DATE-TIME:2025-12-05T14:28:57.649Z')
[hls @ 0x5602d8fb4200] Skip ('#EXT-X-PROGRAM-DATE-TIME:2025-12-05T14:28:59.649Z')
[hls @ 0x5602d8fb4200] Skip ('#EXT-X-PROGRAM-DATE-TIME:2025-12-05T14:29:01.649Z')
[hls @ 0x5602d8fb4200] Skip ('#EXT-X-PROGRAM-DATE-TIME:2025-12-05T14:29:03.649Z')
[hls @ 0x5602d8fb4200] Skip ('#EXT-X-PROGRAM-DATE-TIME:2025-12-05T14:29:05.649Z')
[hls @ 0x5602d8fb4200] Skip ('#EXT-X-PROGRAM-DATE-TIME:2025-12-05T14:29:07.649Z')
[hls @ 0x5602d8fb4200] Skip ('#EXT-X-PROGRAM-DATE-TIME:2025-12-05T14:29:09.649Z')
[hls @ 0x5602d8fb4200] Skip ('#EXT-X-PROGRAM-DATE-TIME:2025-12-05T14:29:11.649Z')
[hls @ 0x5602d8fb4200] Skip ('#EXT-X-PROGRAM-DATE-TIME:2025-12-05T14:29:13.649Z')
[hls @ 0x5602d8fb4200] Skip ('#EXT-X-PROGRAM-DATE-TIME:2025-12-05T14:29:15.649Z')
[hls @ 0x5602d8fb4200] Skip ('#EXT-X-TWITCH-PREFETCH:https://7dfcb88758ec.j.cloudfront.hls.ttvnw.net/v1/segment/CtQCAiHt1Hz2kOupBa4uCvNvd8S4yJI7ItI5CRTi9GyZzIwYLghZEcXJDt2Kc7ZnW54r86UL61OrT1KMYJErUpNUm_eOU4lOXKXJeud1H3n6xoVc9yXEMYhJ5XNh8jJIqp3hPakIAWWupOEaV1mjk_HZY6nJBQVMlxt5knCIZOYQhOUthxn5af-pR2lbRdVrVHlryq2lAW9U5-3qzLFq-MbqyEDySZS6W5Y-tKmTWKxM4IwS-E8-GASjTLRJ4lO5kZR8gErHi6nePsHm0TjwuwXXoflk5rH-a2nLe-D4WM_wsMKRf8VbYfB9aGf-XPs9crnKYM3LIbTNUzbh5dgettiHl0DAZKkx7bz71P01W7Dkdqaf-f67Z66kUosTi3M1_9HJDoEqW96u8e_N2tY11TYXGFiTghljTvx-EzrndJeDx-aP5-Q9rOqCA3IKdWXIR5z7qv1AhhoMXaa26_LsdcOK6vHxIAEqCWV1LXdlc3QtMjDwDQ.ts?dna=CnjriuUNMsk25G-8zQL5-WXCVnjONGriBSAf_Gmy7hUsOq7-J7YLGvjLQalvP6GPh1SC1fkxRLyaafyqPuykkZO3jRCUXikxrkQVOhjtrcNoi-NH0h_kEEhUJ7B-qtqgClsV7TVIcuk6KFPTxo0nzSwwJZyH-3UPxC0aDBG7Re_zBQYvfCXnPiABKglldS13ZXN0LTIw8A0')
[hls @ 0x5602d8fb4200] Skip ('#EXT-X-TWITCH-PREFETCH:https://7dfcb88758ec.j.cloudfront.hls.ttvnw.net/v1/segment/CtQC9VmB9ZgssL8lwTQd5wSWxxA7x8_ex7jgDwKC4j2uNRJVVcWUZTS3B5VolEog7n0taWyDtIAxvthNvxYmlrnDVIlix5y41tWvWZVNlUfKzBNdMXr9hSFED3qQIr1ZTrBUaiGf266zu96BiiREpDt1vhPp-1Vwpx8nZgcSkVNB-R4dFebgkBOO3OeAQLdLhqdblXNzW_cqYIudzDNs7psZ3-f8U3v8bjHxvrALBWTgEQMVZBB5oZJserVcpf9s8dAc2lPorTUBe8ZLm19KLu_YoqRn8sWoy6MNPxpa4o2GFksQdmSWouL3T6OoEWGh2pXFPOP4xupCJoA07drIHrZLfKmLuTipHF4vdTY9YRsulsaSEaLGrXVRlAgdfaZYinhPAoSA_e-FhAsz6aI7I5CNr_Izv6yQYg4ekpCOIOniVwmuikAgMPx_KnMrOfCUhKi7qwoEoxoMR8GaFzqgT6t87nG8IAEqCWV1LXdlc3QtMjDwDQ.ts?dna=CnjriuUNMsk25G-8zQL5-WXCVnjONGriBSAf_Gmy7hUsOq7-J7YLGvjLQalvP6GPh1SC1fkxRLyaafyqPuykkZO3jRCUXikxrkQVOhjtrcNoi-NH0h_kEEhUJ7B-qtqgClsV7TVIcuk6KFPTxo0nzSwwJZyH-3UPxC0aDBG7Re_zBQYvfCXnPiABKglldS13ZXN0LTIw8A0')
[https @ 0x5602d927f740] Opening 'https://7dfcb88758ec.j.cloudfront.hls.ttvnw.net/v1/segment/CtQCleF6zPRhxs2CRPG29jha3LgJqAdu2a5nltfE36j-5Dp6dJh3-vYLzbGRtK_IZ-MaColAJ_9NHoHn9JguhNYMremZW1dnRdykOTnzVtK9yrFR442aoyMUco-zvoh6zNLLLK91oAbsbA3yPvBBRFUwv3gfBuRIrmFbtIfSX9kczN_dj68nTsFrj4Wv2VAfztplA-LcHkRTSQyK2YS3jqKrCHrLhr_JVI-75UAQOcH0yWi40qpCYjWevcEmkt0OdOQojUitIE3S9kxCLK3tiHdvkbtXJ7lBDOJ7jgXx3MHhZJuF6dqz2_g6sTM9CRd02l34RcPdGFy4Xq2K4oy893BinKBdx1tI34x1--UPwpwQaQHPWqzFSSZcz0pAbq9faKLc-gr3f9DDJTiX5mg1D72tHvhk7qUahl2vQbpFvdwERm_TH087w7eRUJ12MUHuCYPZUg3f4RoMBQz39tm7G1Xfe8qxIAEqCWV1LXdlc3QtMjDwDQ.ts?dna=CnjriuUNMsk25G-8zQL5-WXCVnjONGriBSAf_Gmy7hUsOq7-J7YLGvjLQalvP6GPh1SC1fkxRLyaafyqPuykkZO3jRCUXikxrkQVOhjtrcNoi-NH0h_kEEhUJ7B-qtqgClsV7TVIcuk6KFPTxo0nzSwwJZyH-3UPxC0aDBG7Re_zBQYvfCXnPiABKglldS13ZXN0LTIw8A0' for reading
[https @ 0x5602d93c1240] Opening 'https://7dfcb88758ec.j.cloudfront.hls.ttvnw.net/v1/segment/CtQCjnJ9k6L8itPQit4StTrx_Pn359uGwDLcuexHnDczGDRoXv5VrYH_YkF1PAB-JLvsEsgx9TZHB6Npr7clAF4mIScQbd4XUCq6ycDsDVOxG6iq13SjQIYvDT-8Dp8LiW3ajtauCOdaL4eQSpclwgZepjvittFUDiZN-I4LPBYoyibYjIxaJBEON8l2vflqz3afzfH8_42o4YXDnGGTspT_cifg1Dt570CpzTpiuqGfMnrnn6n-E71Eb1j7Vk5XMe38PUaabeCtetEyb-PgO5BUQ7rOOXDH99QtjvwdfCSvUTMJAyM4xxWas-wO70R5BguePSjOCG7r0IjAmf4B5q_geaHZOu9jp_p6bYz3R7It6QBj9Y73gg_2nQjsLRqHjEOBjf5Y7o4vTuBShot6MuLKaowADQG9FM6Lr5WeiJ8UksrCvpRLwfTsssDJix1hKiVOCYsUcBoML7310QoV4-zUHUxkIAEqCWV1LXdlc3QtMjDwDQ.ts?dna=CnjriuUNMsk25G-8zQL5-WXCVnjONGriBSAf_Gmy7hUsOq7-J7YLGvjLQalvP6GPh1SC1fkxRLyaafyqPuykkZO3jRCUXikxrkQVOhjtrcNoi-NH0h_kEEhUJ7B-qtqgClsV7TVIcuk6KFPTxo0nzSwwJZyH-3UPxC0aDBG7Re_zBQYvfCXnPiABKglldS13ZXN0LTIw8A0' for reading
frame=  358 fps= 79 q=-1.0 size=     512KiB time=00:00:11.86 bitrate= 353.5kbits/s speed=2.63x    
frame=  358 fps= 72 q=-1.0 size=     512KiB time=00:00:11.86 bitrate= 353.5kbits/s speed=2.37x    
frame=  358 fps= 65 q=-1.0 size=     512KiB time=00:00:11.86 bitrate= 353.5kbits/s speed=2.16x    
frame=  358 fps= 60 q=-1.0 size=     512KiB time=00:00:11.86 bitrate= 353.5kbits/s speed=1.98x    
[https @ 0x7f0e800128c0] Opening 'https://euw13.playlist.ttvnw.net/v1/playlist/CsYGVnrZ8t7f2NOt1Qpx4D7M60QVvmXeG2t8EYtwq5-gis_6qNk11sd1QO59ZI9Q8xo3kPU6zoqAKFJPI7iBuTQCsquKqb20iK0lMLTmj4yiq8CR0kXPioA-gjz8Uq05WGlhmlK3AZp_P__5DhQn1anlwkKZ3HGgZ-5hu3polq3wC_7f6CJk9a0rlf8mFTa8vfrj_7kONdTFeajAJLARG0TMjcv9KKgJ_45gVK4Swi-M4-56j7_4PN8pmrm8lEGVikw-YOwEUvZ4rPiAeiyUpc5Okfy93Vp4SEc_b8chFlvJ1VFRDetUrRkW1K0IzNQhuPyUbhJZDZWmhSOnuXlv6IGCPYXSQ1R3yIcJbU67c8nYGQMYpIEOD2pF58poDjkxFkoipyCrZx65pUPo6RN7KMPn1scGL_u51JWaOYH4SJPFMBEanfwVuNyYC52oDxLVn1c5KdGpmpQ2lF1ii6XwY5S27j7AXf58nnhXlImGkzE15ff8I_EJKDRzZgGce6yhXSasl4eKZrW6y__YMmHZlV8in_W_lSglmRXuMUoC-XoE34nADD4ptz-T2qlmXm3gW80fDk9bcSt2KrnhrYgwDKijeg9yzteswmBtmb-XtHpCEraaTRqW6gtzGc2meyzxWtJEhuCce1R99JVsdMjrIPPSBeB43x47pd8fZ4OodcvlvdQINHD1ExV9cU-v0fOIYcNZX_ufIiS6QdV-8yoZuiGOwIzRYLgobHBzGadhKapA7j6GjbwY_5kodBmxsQqthbLTLsVWovNkXCAteAMlCumEE7UyEdWiV_FMoc12cYsY6zJS6-MFZjnrlatUYVvoMHvbV-ZFjk1YzSWKLg_9OPDKGBnLuIrwpFT3gtwT_ATIlwejgrojrNPR6MIdRK4NIegc9P9i9NdZ55U_hBch_NUxMCbSwaWBBudqVzs1JxVeon63MiSwtlx7Eh6NWieLOZ-756zWvyyGsuiT9XDO07QVNDPhc9ZwIHuCWhhm7Mqc6YzbbYhXQDDcU3s4VCqZABC_Y5-noSwCtbWMdQzeQEAvHW_7oR3fkSLEZXmxSqbsqAgun75TVTAt12Y9-A53-zB1kQ8rrNNCmuIbHNrlIcXcFCYJdJZMXBoMshUI8qy_MfY4EUmAIAEqCWV1LXdlc3QtMjDwDQ.m3u8' for reading
[hls @ 0x5602d8fb4200] Skip ('#EXT-X-VERSION:3')
[hls @ 0x5602d8fb4200] Skip ('#EXT-X-TWITCH-LIVE-SEQUENCE:12640')
[hls @ 0x5602d8fb4200] Skip ('#EXT-X-TWITCH-ELAPSED-SECS:25280.000')
[hls @ 0x5602d8fb4200] Skip ('#EXT-X-TWITCH-TOTAL-SECS:25312.000')
[hls @ 0x5602d8fb4200] Skip ('#EXT-X-DATERANGE:ID="playlist-creation-1764944945",CLASS="timestamp",START-DATE="2025-12-05T14:29:05.417Z",END-ON-NEXT=YES,X-SERVER-TIME="1764944945.42"')
[hls @ 0x5602d8fb4200] Skip ('#EXT-X-DATERANGE:ID="playlist-session-1764944945",CLASS="twitch-session",START-DATE="2025-12-05T14:29:05.417Z",END-ON-NEXT=YES,X-TV-TWITCH-SESSIONID="3923588872949232500"')
[hls @ 0x5602d8fb4200] Skip ('#EXT-X-DATERANGE:ID="source-1764944923",CLASS="twitch-stream-source",START-DATE="2025-12-05T14:28:43.649Z",END-ON-NEXT=YES,X-TV-TWITCH-STREAM-SOURCE="live"')
[hls @ 0x5602d8fb4200] Skip ('#EXT-X-DATERANGE:ID="trigger-1764944915",CLASS="twitch-trigger",START-DATE="2025-12-05T14:28:35.649Z",END-ON-NEXT=YES,X-TV-TWITCH-TRIGGER-URL="https://euw13.playlist.ttvnw.net/trigger/CswGfOTf_94NJn15MXcDO7it-8-nPqFESF57J0ogFubKkdh_Dr9mwgEhU3yfldZhUlbbaTLWGPZ9nzWBqLHyRKcgtLFfZy0UxyMycCGD2MChPgbztsbkcHmysQOyuq0AN6lGR5d0tU5cCUGtgr384DyqxlSx_LymvxeSzsuzt3P0esX6E_St-ATgcf3rkdaP3F6qYE2Pw99DKMh6hUxVsqji8g2j5puNDBHV_LSsZryNBQaN-lvyPt1ZodUwd1NwuZ_QjDWLGm0P-EolWw6AJW4fC-ighshPX4cbIK8V5epIeV_DJ_IO3rq8gWgtwghxw8kPzlogE9ye4ixfE6vC0VHpzpf-PJgrKqs4QnYAlX_7Jxq1A8cHTXuIHqew4VcxpTs97WpPS_8MH-VPxv3Ix8Ky8ue_bc4PqubHS7ghl5rcR21vyMxCV2yqRPFCLHByuZOxf9773gvSS67Wsr3Q51BQX3CwC5uSpAEtsg2htYo-msZW49ywDaX_3Vw8nSq4kRNPvvO740rCRjwS3ZyBekRRNPovzh6b_w76qd8ivYbwzIkDQb2HzYJvfuZe41oI_PpN8_SjAfiTDJhLRzpM9rZYcrJ6_xmv7sANpbWE_Ueq3zYpIeim3tneMGTXwJqZtqjvAAjOsH_qNWKvqjWjT48sfEssji2VLyg3CPWUQRo_x9pU77eWZv8v8KJfI6w0rHVtmdKGPcp7Xq_Twamx1mv7tzQsgtU1hjZk47ghISexxGoNXWJNp1YWHy4qyQCyEnqIG8LJwf5DaEI8gadMEVC2JudImQBqDIqU_n0yQdv228XkAkuhAFDsV8hq6WkR1Eiblr8IftJaxL3KJLWDLU8e16km_MCr5K3NndkKRNlyYT7-N8qljQoHOW1m3mbmKMUylmZtsaOOiAb5NXl4PiHPV-ZjU0ZzmmHBnMgwONCXuyWLJ7EliI_23nuwoat8tXCkm_Kj-PBRIYE7k59lzcl0ozaZP1ddtP6QgJ8EhR0bKU2E6aVlLyseKabU1ucxjH-Tly8OKyxe0hSimqQZHnYPMVY3w9YE-evtWh7lGkQWV_DrE4g8RbwhebRbDFFX-ap6BZbcTq9CxlkMwbt-XhGm3qWNj-_hU0Sf8-QhmxoMKilrIHTBZwGQL7YQIAEqCWV1LXdlc3QtMjDwDQ"')
[hls @ 0x5602d8fb4200] Skip ('#EXT-X-PROGRAM-DATE-TIME:2025-12-05T14:28:51.649Z')
[hls @ 0x5602d8fb4200] Skip ('#EXT-X-PROGRAM-DATE-TIME:2025-12-05T14:28:53.649Z')
[hls @ 0x5602d8fb4200] Skip ('#EXT-X-PROGRAM-DATE-TIME:2025-12-05T14:28:55.649Z')
[hls @ 0x5602d8fb4200] Skip ('#EXT-X-PROGRAM-DATE-TIME:2025-12-05T14:28:57.649Z')
[hls @ 0x5602d8fb4200] Skip ('#EXT-X-PROGRAM-DATE-TIME:2025-12-05T14:28:59.649Z')
[hls @ 0x5602d8fb4200] Skip ('#EXT-X-PROGRAM-DATE-TIME:2025-12-05T14:29:01.649Z')
[hls @ 0x5602d8fb4200] Skip ('#EXT-X-PROGRAM-DATE-TIME:2025-12-05T14:29:03.649Z')
[hls @ 0x5602d8fb4200] Skip ('#EXT-X-PROGRAM-DATE-TIME:2025-12-05T14:29:05.649Z')
[hls @ 0x5602d8fb4200] Skip ('#EXT-X-PROGRAM-DATE-TIME:2025-12-05T14:29:07.649Z')
[hls @ 0x5602d8fb4200] Skip ('#EXT-X-PROGRAM-DATE-TIME:2025-12-05T14:29:09.649Z')
[hls @ 0x5602d8fb4200] Skip ('#EXT-X-PROGRAM-DATE-TIME:2025-12-05T14:29:11.649Z')
[hls @ 0x5602d8fb4200] Skip ('#EXT-X-PROGRAM-DATE-TIME:2025-12-05T14:29:13.649Z')
[hls @ 0x5602d8fb4200] Skip ('#EXT-X-PROGRAM-DATE-TIME:2025-12-05T14:29:15.649Z')
[hls @ 0x5602d8fb4200] Skip ('#EXT-X-PROGRAM-DATE-TIME:2025-12-05T14:29:17.649Z')
[hls @ 0x5602d8fb4200] Skip ('#EXT-X-TWITCH-PREFETCH:https://7dfcb88758ec.j.cloudfront.hls.ttvnw.net/v1/segment/CtQC9VmB9ZgssL8lwTQd5wSWxxA7x8_ex7jgDwKC4j2uNRJVVcWUZTS3B5VolEog7n0taWyDtIAxvthNvxYmlrnDVIlix5y41tWvWZVNlUfKzBNdMXr9hSFED3qQIr1ZTrBUaiGf266zu96BiiREpDt1vhPp-1Vwpx8nZgcSkVNB-R4dFebgkBOO3OeAQLdLhqdblXNzW_cqYIudzDNs7psZ3-f8U3v8bjHxvrALBWTgEQMVZBB5oZJserVcpf9s8dAc2lPorTUBe8ZLm19KLu_YoqRn8sWoy6MNPxpa4o2GFksQdmSWouL3T6OoEWGh2pXFPOP4xupCJoA07drIHrZLfKmLuTipHF4vdTY9YRsulsaSEaLGrXVRlAgdfaZYinhPAoSA_e-FhAsz6aI7I5CNr_Izv6yQYg4ekpCOIOniVwmuikAgMPx_KnMrOfCUhKi7qwoEoxoMR8GaFzqgT6t87nG8IAEqCWV1LXdlc3QtMjDwDQ.ts?dna=CnjriuUNMsk25G-8zQL5-WXCVnjONGriBSAf_Gmy7hUsOq7-J7YLGvjLQalvP6GPh1SC1fkxRLyaafyqPuykkZO3jRCUXikxrkQVOhjtrcNoi-NH0h_kEEhUJ7B-qtqgClsV7TVIcuk6KFPTxo0nzSwwJZyH-3UPxC0aDBG7Re_zBQYvfCXnPiABKglldS13ZXN0LTIw8A0')
[hls @ 0x5602d8fb4200] Skip ('#EXT-X-TWITCH-PREFETCH:https://7dfcb88758ec.j.cloudfront.hls.ttvnw.net/v1/segment/CtQClnhUCpIRLaXnCobdI32CzuGmz1PAXJJ6P57C5zKovBUzpECyUflsqsYCPNVd4Ai93zo6Xw_rPG0KEUFwKGnXTcjRJvm5oLTBzsdQr2Abp2JSV2jWXh9KrfM53d53aG_ip3-kG87KczkuAJXmy8zGi3-4yEZM_3w-oUdUgk9fawKiz4KxaHu4Pcm1owKPDV3RiULzLp-4IxyI54sPIIlGYJDp37CFDZyi1h-_PmJfwIlzNY4_X2CdrbRiQeY6_zXJ7K6AMSIuCpSdsyITuYEtk_YSGB2v86-4oc_akfnUU0FTbeo_Elv1S5C4b2P9Vq2T-5b6ux0tGWjzoMR9IDwTt4ud0H4BHqunEJetElrDcxtb_eVG0egyK7gdAE6_5XLvlwXcAPK7Ij6wUS5Dp0Ey8U6MbgJbZruVBO4V-O4PmRv0QG06WvkVIT0CRrhQSzka0GH7GRoMCXJLZKDMrfA5TPIRIAEqCWV1LXdlc3QtMjDwDQ.ts?dna=CnjriuUNMsk25G-8zQL5-WXCVnjONGriBSAf_Gmy7hUsOq7-J7YLGvjLQalvP6GPh1SC1fkxRLyaafyqPuykkZO3jRCUXikxrkQVOhjtrcNoi-NH0h_kEEhUJ7B-qtqgClsV7TVIcuk6KFPTxo0nzSwwJZyH-3UPxC0aDBG7Re_zBQYvfCXnPiABKglldS13ZXN0LTIw8A0')
[https @ 0x5602d93c1240] Opening 'https://7dfcb88758ec.j.cloudfront.hls.ttvnw.net/v1/segment/CtQCAiHt1Hz2kOupBa4uCvNvd8S4yJI7ItI5CRTi9GyZzIwYLghZEcXJDt2Kc7ZnW54r86UL61OrT1KMYJErUpNUm_eOU4lOXKXJeud1H3n6xoVc9yXEMYhJ5XNh8jJIqp3hPakIAWWupOEaV1mjk_HZY6nJBQVMlxt5knCIZOYQhOUthxn5af-pR2lbRdVrVHlryq2lAW9U5-3qzLFq-MbqyEDySZS6W5Y-tKmTWKxM4IwS-E8-GASjTLRJ4lO5kZR8gErHi6nePsHm0TjwuwXXoflk5rH-a2nLe-D4WM_wsMKRf8VbYfB9aGf-XPs9crnKYM3LIbTNUzbh5dgettiHl0DAZKkx7bz71P01W7Dkdqaf-f67Z66kUosTi3M1_9HJDoEqW96u8e_N2tY11TYXGFiTghljTvx-EzrndJeDx-aP5-Q9rOqCA3IKdWXIR5z7qv1AhhoMXaa26_LsdcOK6vHxIAEqCWV1LXdlc3QtMjDwDQ.ts?dna=CnjriuUNMsk25G-8zQL5-WXCVnjONGriBSAf_Gmy7hUsOq7-J7YLGvjLQalvP6GPh1SC1fkxRLyaafyqPuykkZO3jRCUXikxrkQVOhjtrcNoi-NH0h_kEEhUJ7B-qtqgClsV7TVIcuk6KFPTxo0nzSwwJZyH-3UPxC0aDBG7Re_zBQYvfCXnPiABKglldS13ZXN0LTIw8A0' for reading
frame=  418 fps= 64 q=-1.0 size=     512KiB time=00:00:13.86 bitrate= 302.5kbits/s speed=2.13x    
frame=  418 fps= 60 q=-1.0 size=     512KiB time=00:00:13.86 bitrate= 302.5kbits/s speed=1.98x    
frame=  418 fps= 56 q=-1.0 size=     512KiB time=00:00:13.86 bitrate= 302.5kbits/s speed=1.85x    
[https @ 0x7f0e800128c0] Opening 'https://euw13.playlist.ttvnw.net/v1/playlist/CsYGVnrZ8t7f2NOt1Qpx4D7M60QVvmXeG2t8EYtwq5-gis_6qNk11sd1QO59ZI9Q8xo3kPU6zoqAKFJPI7iBuTQCsquKqb20iK0lMLTmj4yiq8CR0kXPioA-gjz8Uq05WGlhmlK3AZp_P__5DhQn1anlwkKZ3HGgZ-5hu3polq3wC_7f6CJk9a0rlf8mFTa8vfrj_7kONdTFeajAJLARG0TMjcv9KKgJ_45gVK4Swi-M4-56j7_4PN8pmrm8lEGVikw-YOwEUvZ4rPiAeiyUpc5Okfy93Vp4SEc_b8chFlvJ1VFRDetUrRkW1K0IzNQhuPyUbhJZDZWmhSOnuXlv6IGCPYXSQ1R3yIcJbU67c8nYGQMYpIEOD2pF58poDjkxFkoipyCrZx65pUPo6RN7KMPn1scGL_u51JWaOYH4SJPFMBEanfwVuNyYC52oDxLVn1c5KdGpmpQ2lF1ii6XwY5S27j7AXf58nnhXlImGkzE15ff8I_EJKDRzZgGce6yhXSasl4eKZrW6y__YMmHZlV8in_W_lSglmRXuMUoC-XoE34nADD4ptz-T2qlmXm3gW80fDk9bcSt2KrnhrYgwDKijeg9yzteswmBtmb-XtHpCEraaTRqW6gtzGc2meyzxWtJEhuCce1R99JVsdMjrIPPSBeB43x47pd8fZ4OodcvlvdQINHD1ExV9cU-v0fOIYcNZX_ufIiS6QdV-8yoZuiGOwIzRYLgobHBzGadhKapA7j6GjbwY_5kodBmxsQqthbLTLsVWovNkXCAteAMlCumEE7UyEdWiV_FMoc12cYsY6zJS6-MFZjnrlatUYVvoMHvbV-ZFjk1YzSWKLg_9OPDKGBnLuIrwpFT3gtwT_ATIlwejgrojrNPR6MIdRK4NIegc9P9i9NdZ55U_hBch_NUxMCbSwaWBBudqVzs1JxVeon63MiSwtlx7Eh6NWieLOZ-756zWvyyGsuiT9XDO07QVNDPhc9ZwIHuCWhhm7Mqc6YzbbYhXQDDcU3s4VCqZABC_Y5-noSwCtbWMdQzeQEAvHW_7oR3fkSLEZXmxSqbsqAgun75TVTAt12Y9-A53-zB1kQ8rrNNCmuIbHNrlIcXcFCYJdJZMXBoMshUI8qy_MfY4EUmAIAEqCWV1LXdlc3QtMjDwDQ.m3u8' for reading
[hls @ 0x5602d8fb4200] Skip ('#EXT-X-VERSION:3')
[hls @ 0x5602d8fb4200] Skip ('#EXT-X-TWITCH-LIVE-SEQUENCE:12641')
[hls @ 0x5602d8fb4200] Skip ('#EXT-X-TWITCH-ELAPSED-SECS:25282.000')
[hls @ 0x5602d8fb4200] Skip ('#EXT-X-TWITCH-TOTAL-SECS:25314.000')
[hls @ 0x5602d8fb4200] Skip ('#EXT-X-DATERANGE:ID="playlist-creation-1764944945",CLASS="timestamp",START-DATE="2025-12-05T14:29:05.417Z",END-ON-NEXT=YES,X-SERVER-TIME="1764944945.42"')
[hls @ 0x5602d8fb4200] Skip ('#EXT-X-DATERANGE:ID="playlist-session-1764944945",CLASS="twitch-session",START-DATE="2025-12-05T14:29:05.417Z",END-ON-NEXT=YES,X-TV-TWITCH-SESSIONID="3923588872949232500"')
[hls @ 0x5602d8fb4200] Skip ('#EXT-X-DATERANGE:ID="source-1764944923",CLASS="twitch-stream-source",START-DATE="2025-12-05T14:28:43.649Z",END-ON-NEXT=YES,X-TV-TWITCH-STREAM-SOURCE="live"')
[hls @ 0x5602d8fb4200] Skip ('#EXT-X-DATERANGE:ID="trigger-1764944915",CLASS="twitch-trigger",START-DATE="2025-12-05T14:28:35.649Z",END-ON-NEXT=YES,X-TV-TWITCH-TRIGGER-URL="https://euw13.playlist.ttvnw.net/trigger/CswGfOTf_94NJn15MXcDO7it-8-nPqFESF57J0ogFubKkdh_Dr9mwgEhU3yfldZhUlbbaTLWGPZ9nzWBqLHyRKcgtLFfZy0UxyMycCGD2MChPgbztsbkcHmysQOyuq0AN6lGR5d0tU5cCUGtgr384DyqxlSx_LymvxeSzsuzt3P0esX6E_St-ATgcf3rkdaP3F6qYE2Pw99DKMh6hUxVsqji8g2j5puNDBHV_LSsZryNBQaN-lvyPt1ZodUwd1NwuZ_QjDWLGm0P-EolWw6AJW4fC-ighshPX4cbIK8V5epIeV_DJ_IO3rq8gWgtwghxw8kPzlogE9ye4ixfE6vC0VHpzpf-PJgrKqs4QnYAlX_7Jxq1A8cHTXuIHqew4VcxpTs97WpPS_8MH-VPxv3Ix8Ky8ue_bc4PqubHS7ghl5rcR21vyMxCV2yqRPFCLHByuZOxf9773gvSS67Wsr3Q51BQX3CwC5uSpAEtsg2htYo-msZW49ywDaX_3Vw8nSq4kRNPvvO740rCRjwS3ZyBekRRNPovzh6b_w76qd8ivYbwzIkDQb2HzYJvfuZe41oI_PpN8_SjAfiTDJhLRzpM9rZYcrJ6_xmv7sANpbWE_Ueq3zYpIeim3tneMGTXwJqZtqjvAAjOsH_qNWKvqjWjT48sfEssji2VLyg3CPWUQRo_x9pU77eWZv8v8KJfI6w0rHVtmdKGPcp7Xq_Twamx1mv7tzQsgtU1hjZk47ghISexxGoNXWJNp1YWHy4qyQCyEnqIG8LJwf5DaEI8gadMEVC2JudImQBqDIqU_n0yQdv228XkAkuhAFDsV8hq6WkR1Eiblr8IftJaxL3KJLWDLU8e16km_MCr5K3NndkKRNlyYT7-N8qljQoHOW1m3mbmKMUylmZtsaOOiAb5NXl4PiHPV-ZjU0ZzmmHBnMgwONCXuyWLJ7EliI_23nuwoat8tXCkm_Kj-PBRIYE7k59lzcl0ozaZP1ddtP6QgJ8EhR0bKU2E6aVlLyseKabU1ucxjH-Tly8OKyxe0hSimqQZHnYPMVY3w9YE-evtWh7lGkQWV_DrE4g8RbwhebRbDFFX-ap6BZbcTq9CxlkMwbt-XhGm3qWNj-_hU0Sf8-QhmxoMKilrIHTBZwGQL7YQIAEqCWV1LXdlc3QtMjDwDQ"')
[hls @ 0x5602d8fb4200] Skip ('#EXT-X-PROGRAM-DATE-TIME:2025-12-05T14:28:53.649Z')
[hls @ 0x5602d8fb4200] Skip ('#EXT-X-PROGRAM-DATE-TIME:2025-12-05T14:28:55.649Z')
[hls @ 0x5602d8fb4200] Skip ('#EXT-X-PROGRAM-DATE-TIME:2025-12-05T14:28:57.649Z')
[hls @ 0x5602d8fb4200] Skip ('#EXT-X-PROGRAM-DATE-TIME:2025-12-05T14:28:59.649Z')
[hls @ 0x5602d8fb4200] Skip ('#EXT-X-PROGRAM-DATE-TIME:2025-12-05T14:29:01.649Z')
[hls @ 0x5602d8fb4200] Skip ('#EXT-X-PROGRAM-DATE-TIME:2025-12-05T14:29:03.649Z')
[hls @ 0x5602d8fb4200] Skip ('#EXT-X-PROGRAM-DATE-TIME:2025-12-05T14:29:05.649Z')
[hls @ 0x5602d8fb4200] Skip ('#EXT-X-PROGRAM-DATE-TIME:2025-12-05T14:29:07.649Z')
[hls @ 0x5602d8fb4200] Skip ('#EXT-X-PROGRAM-DATE-TIME:2025-12-05T14:29:09.649Z')
[hls @ 0x5602d8fb4200] Skip ('#EXT-X-PROGRAM-DATE-TIME:2025-12-05T14:29:11.649Z')
[hls @ 0x5602d8fb4200] Skip ('#EXT-X-PROGRAM-DATE-TIME:2025-12-05T14:29:13.649Z')
[hls @ 0x5602d8fb4200] Skip ('#EXT-X-PROGRAM-DATE-TIME:2025-12-05T14:29:15.649Z')
[hls @ 0x5602d8fb4200] Skip ('#EXT-X-PROGRAM-DATE-TIME:2025-12-05T14:29:17.649Z')
[hls @ 0x5602d8fb4200] Skip ('#EXT-X-PROGRAM-DATE-TIME:2025-12-05T14:29:19.649Z')
[hls @ 0x5602d8fb4200] Skip ('#EXT-X-TWITCH-PREFETCH:https://7dfcb88758ec.j.cloudfront.hls.ttvnw.net/v1/segment/CtQClnhUCpIRLaXnCobdI32CzuGmz1PAXJJ6P57C5zKovBUzpECyUflsqsYCPNVd4Ai93zo6Xw_rPG0KEUFwKGnXTcjRJvm5oLTBzsdQr2Abp2JSV2jWXh9KrfM53d53aG_ip3-kG87KczkuAJXmy8zGi3-4yEZM_3w-oUdUgk9fawKiz4KxaHu4Pcm1owKPDV3RiULzLp-4IxyI54sPIIlGYJDp37CFDZyi1h-_PmJfwIlzNY4_X2CdrbRiQeY6_zXJ7K6AMSIuCpSdsyITuYEtk_YSGB2v86-4oc_akfnUU0FTbeo_Elv1S5C4b2P9Vq2T-5b6ux0tGWjzoMR9IDwTt4ud0H4BHqunEJetElrDcxtb_eVG0egyK7gdAE6_5XLvlwXcAPK7Ij6wUS5Dp0Ey8U6MbgJbZruVBO4V-O4PmRv0QG06WvkVIT0CRrhQSzka0GH7GRoMCXJLZKDMrfA5TPIRIAEqCWV1LXdlc3QtMjDwDQ.ts?dna=CnjriuUNMsk25G-8zQL5-WXCVnjONGriBSAf_Gmy7hUsOq7-J7YLGvjLQalvP6GPh1SC1fkxRLyaafyqPuykkZO3jRCUXikxrkQVOhjtrcNoi-NH0h_kEEhUJ7B-qtqgClsV7TVIcuk6KFPTxo0nzSwwJZyH-3UPxC0aDBG7Re_zBQYvfCXnPiABKglldS13ZXN0LTIw8A0')
[hls @ 0x5602d8fb4200] Skip ('#EXT-X-TWITCH-PREFETCH:https://7dfcb88758ec.j.cloudfront.hls.ttvnw.net/v1/segment/CtQCsMytKumYveh5Cfvx4HTPcQuNPaY5_uWS2h1C7Ucb1k6UL8Z6A8NYZIWuTlqy6G9XWS-CheXarkBtbQUAQ5ODWXnPtRaV2GmR_DuwxCbWuAj_wPRXm-CpfWXzbRmGjIZ25UGT3eHY7OqqoCWi77NnLV1TEZoDshTlG8FgOa1eeTyzVrBix_qobRGpvhGw1c_qA2chdJEq7uxV85d7Se0u42TfnB9qgackAA8uQv65h3-S5zyfBVJAlMZaBol4e6qKml9Yjgl-vHM_I2RqbzfVnGyoPiOqushcYv5PCaFLFHizNE6DfEIzSfLD-HnryJjHLJSIK86U_QIMB_oLuiNjQhVZr3RU7Fi7k5FyB7ClDjdM3Fg1vBE1qwfs5lWBfoVGOIaaN_xU1EVqN9dCF7-EnALPDZDA712fngc79JoJ4hyyiTnmB0ygWk6P6mXnWB19edh7tBoMuGB2qtOH5kMnWhZVIAEqCWV1LXdlc3QtMjDwDQ.ts?dna=CnjriuUNMsk25G-8zQL5-WXCVnjONGriBSAf_Gmy7hUsOq7-J7YLGvjLQalvP6GPh1SC1fkxRLyaafyqPuykkZO3jRCUXikxrkQVOhjtrcNoi-NH0h_kEEhUJ7B-qtqgClsV7TVIcuk6KFPTxo0nzSwwJZyH-3UPxC0aDBG7Re_zBQYvfCXnPiABKglldS13ZXN0LTIw8A0')
[https @ 0x5602d93c1240] Opening 'https://7dfcb88758ec.j.cloudfront.hls.ttvnw.net/v1/segment/CtQC9VmB9ZgssL8lwTQd5wSWxxA7x8_ex7jgDwKC4j2uNRJVVcWUZTS3B5VolEog7n0taWyDtIAxvthNvxYmlrnDVIlix5y41tWvWZVNlUfKzBNdMXr9hSFED3qQIr1ZTrBUaiGf266zu96BiiREpDt1vhPp-1Vwpx8nZgcSkVNB-R4dFebgkBOO3OeAQLdLhqdblXNzW_cqYIudzDNs7psZ3-f8U3v8bjHxvrALBWTgEQMVZBB5oZJserVcpf9s8dAc2lPorTUBe8ZLm19KLu_YoqRn8sWoy6MNPxpa4o2GFksQdmSWouL3T6OoEWGh2pXFPOP4xupCJoA07drIHrZLfKmLuTipHF4vdTY9YRsulsaSEaLGrXVRlAgdfaZYinhPAoSA_e-FhAsz6aI7I5CNr_Izv6yQYg4ekpCOIOniVwmuikAgMPx_KnMrOfCUhKi7qwoEoxoMR8GaFzqgT6t87nG8IAEqCWV1LXdlc3QtMjDwDQ.ts?dna=CnjriuUNMsk25G-8zQL5-WXCVnjONGriBSAf_Gmy7hUsOq7-J7YLGvjLQalvP6GPh1SC1fkxRLyaafyqPuykkZO3jRCUXikxrkQVOhjtrcNoi-NH0h_kEEhUJ7B-qtqgClsV7TVIcuk6KFPTxo0nzSwwJZyH-3UPxC0aDBG7Re_zBQYvfCXnPiABKglldS13ZXN0LTIw8A0' for reading
[out#0/mp4 @ 0x5602d937f600] video:351KiB audio:276KiB subtitle:0KiB other streams:0KiB global headers:0KiB muxing overhead: 2.870240%
frame=  418 fps= 50 q=-1.0 Lsize=     645KiB time=00:00:13.86 bitrate= 381.0kbits/s speed=1.67x    
Exiting normally, received signal 15.
2025-12-05 14:29:21,546 - __main__ - INFO - Download stopped for browser direct_1764944952
2025-12-05 14:29:21,546 - werkzeug - INFO - 192.168.0.246 - - [05/Dec/2025 14:29:21] "POST /api/downloads/stop/direct_1764944952 HTTP/1.1" 200 -
2025-12-05 14:29:21,562 - werkzeug - INFO - 192.168.0.246 - - [05/Dec/2025 14:29:21] "GET /api/downloads/active HTTP/1.1" 200 -
2025-12-05 14:29:25,796 - werkzeug - INFO - 192.168.0.246 - - [05/Dec/2025 14:29:25] "GET /api/downloads/active HTTP/1.1" 200 -
